# xmcd
#
# Track frame offsets:
#	182
#	9362
#	18742
#	28930
#	37622
#	49822
#	63607
#	76477
#	91455
#	106285
#	124600
#	139282
#	153350
#	171522
#	187857
#	202930
#
# Disc length: 2934 seconds
#
# Revision: 3
# Processed by: cddbd v1.4PL0 Copyright (c) Steve Scherf et al.
# Submitted via: Gronk 1.4
#
DISCID=cf0b7410
DTITLE=Buddy Emmons - Amazing Steel Guitar: The Buddy Emmons Collection
DYEAR=1900
DGENRE=country
TTITLE0=Raisin' The Dickens
TTITLE1=Country Boy Bounce
TTITLE2=Silver Bell
TTITLE3=Four Wheel Drive
TTITLE4=Blue Wind
TTITLE5=Bluemoons
TTITLE6=Any Time
TTITLE7=Where Or When
TTITLE8=Indiana
TTITLE9=Gravy Waltz
TTITLE10=Oleo
TTITLE11=The Preacher
TTITLE12=Cherokee
TTITLE13=Witchcraft
TTITLE14=Gonna Build A Mountain
TTITLE15=There Will Never Be Another You
EXTD=
EXTT0=
EXTT1=
EXTT2=
EXTT3=
EXTT4=
EXTT5=
EXTT6=
EXTT7=
EXTT8=
EXTT9=
EXTT10=
EXTT11=
EXTT12=
EXTT13=
EXTT14=
EXTT15=
PLAYORDER=
